<?xml version="1.0"?>
<svg xmlns="http://www.w3.org/2000/svg" id="Vector" viewBox="0 0 1200 1200" fill="#fff">
  <defs>
    <style>.cls-1{fill:#dfdfdf;}.cls-2{fill:#f3f3f3;}.cls-3,.cls-4,.cls-5,.cls-6,.cls-7,.cls-8{fill:none;}.cls-3{stroke:#dfdfdf;}.cls-3,.cls-6{stroke-miterlimit:10;}.cls-3,.cls-4,.cls-7{stroke-width:4px;}.cls-4,.cls-5,.cls-6{stroke:white;}.cls-4,.cls-5,.cls-7,.cls-8{stroke-linecap:round;stroke-linejoin:round;}.cls-5,.cls-6{stroke-width:2.5px;}.cls-7,.cls-8{stroke:#f3f3f3;}.cls-8{stroke-width:2px;}</style>
  </defs>
  <title>Artboard 1</title>
  <path class="cls-1" d="M262,808V453.49H201v273.4C226.44,743.56,247.06,775.91,262,808Z"/>
  <path class="cls-1" d="M201,927.82v31h18.18A167.33,167.33,0,0,1,201,927.82Z"/>
  <path class="cls-2" d="M261.28,453.49v353c14.15,30,23.34,60.07,26.9,77,5.85,27.85,25.55,46,25.55,74.14,0,.41,0,.8,0,1.21h210V453.49Z"/>
  <polyline class="cls-3" points="205.45 483.05 176 483.05 176 716.4"/>
  <polyline class="cls-3" points="655.57 316.71 655.57 646.56 665.13 646.56"/>
  <line class="cls-4" x1="967.87" y1="1008.54" x2="905.34" y2="903.32"/>
  <line class="cls-4" x1="996.05" y1="1008.54" x2="933.75" y2="903.7"/>
  <line class="cls-4" x1="793.51" y1="1000.31" x2="851.01" y2="903.55"/>
  <path class="cls-5" d="M945.2,668.8h88.88L969.55,902.63H805.87V894.3H927.26l2.6-54.49"/>
  <path d="M748.58,822.26c-13.45,0-80.58,156.29-80.58,162s14.57,12.19,16.72,12.19c3.35-3.11,67.61-96,74.3-102.48S748.58,822.26,748.58,822.26Z"/>
  <path class="cls-5" d="M786.21,744.43a22.38,22.38,0,0,0-14.48-4.94c-10.69,0-19.36,6.57-19.36,14.67"/>
  <path class="cls-5" d="M847.4,713.29c-6.77,6.19-15.68,16.72-19.9,29"/>
  <path class="cls-5" d="M883.72,678.4a19.67,19.67,0,0,0-7.34-1.64c-13.72,0-36.93,25-36.93,28.14,0,2.74,12.52,13.53,24.22,16.94"/>
  <path class="cls-5" d="M860.46,746.4c2.53-36.83,13.83-71.91,44.76-81.27"/>
  <path class="cls-5" d="M974.42,715.9c13.86,52.2,4.42,124.69-1.86,129.39-9.87,7.41-96,8.08-101.61.68-2.36-3.12-9.9-36.14-11-73.32"/>
  <path class="cls-5" d="M936.23,664.73c11.92,3.77,20.93,12.56,27.65,24.34"/>
  <path class="cls-5" d="M920.73,675.68c7.75,0,15.5-1.64,15.5-5V637.39"/>
  <path class="cls-5" d="M905.22,653.12v12"/>
  <path class="cls-5" d="M917.78,652.86a21.74,21.74,0,0,1-10.09.82c-16.71-2.67-27-25-23.08-49.82.16-1,.34-2,.54-3"/>
  <path class="cls-5" d="M942.8,623.29a58.66,58.66,0,0,1-6.57,14.1"/>
  <path class="cls-6" d="M949.82,562.09c4.43-7.67,15.67-20.59,37.68-20.59,15,0,30,8,49,8,15,0,29-6,47-6,32,0,42,21,42,34,0,33-27,46-47,46-32,0-36-22-74-22-37,0-32-30-40-30a19.26,19.26,0,0,0-5.64.63"/>
  <path class="cls-5" d="M940.5,632.5c16.3,0,24-16.79,24-38,0-35-30.9-42-44-42-35.37,0-42.77,26.91-42.77,34.68s4.91,13.53,7.42,13.72c1.56-9.29,9-22.11,9.35-22.4a37.58,37.58,0,0,0,11.42,7.63"/>
  <path class="cls-5" d="M938.87,606.79a8.55,8.55,0,0,1,3.58-.77,8.64,8.64,0,0,1,0,17.28,8.75,8.75,0,0,1-2.62-.4"/>
  <path class="cls-5" d="M860,772.65c10.19,4.15,19.86,7.37,31.9,7.37,9.38,0,27.34-5.85,40.82-20.36"/>
  <path class="cls-5" d="M905.34,732a64.52,64.52,0,0,0-17.71,19.83c-8.25-1.54-41.81-9.93-71.6-9.93-2.8,0-10.07-2.3-13-2.3-17.47,0-21.12,9.44-21.12,12.23s.6,2.87,1.14,2.87c38.57,0,58.59,10.47,76.94,17.94"/>
  <path class="cls-5" d="M947.81,690.54c9.88-2.81,19-2.77,24.67,2.73,18.74,18.19-28.65,68.54-36.25,67.8s-35-29.59-35.26-38.36c-.1-3,6.18-9.52,15.2-16"/>
  <rect x="587.77" y="756.95" width="423.23" height="13.66"/>
  <line class="cls-4" x1="988.26" y1="974.33" x2="988.26" y2="766.79"/>
  <line class="cls-4" x1="636.61" y1="974.33" x2="636.61" y2="766.79"/>
  <line class="cls-4" x1="958.54" y1="1015.92" x2="958.54" y2="766.79"/>
  <line class="cls-4" x1="605.21" y1="1015.92" x2="605.21" y2="766.79"/>
  <line class="cls-4" x1="815.07" y1="1012.88" x2="880.05" y2="903.55"/>
  <rect x="743.08" y="754.44" width="70.27" height="2.51"/>
  <polyline class="cls-5" points="714.43 702.26 665.13 702.26 665.13 590.85 818.55 590.85 818.55 702.26 751.07 702.26"/>
  <polygon class="cls-5" points="720.29 681.31 699.13 756.95 736.22 756.95 756.76 681.31 720.29 681.31"/>
  <path class="cls-1" d="M750.19,322.09a44.73,44.73,0,0,0-47.45-73.68,62,62,0,0,0-109,9.67,44.73,44.73,0,0,0-55.41,64Z"/>
  <polyline class="cls-3" points="639.95 313.62 639.95 385.34 419.88 385.34 419.88 453.49"/>
  <path class="cls-5" d="M296.48,1015.92c5.85,0,17.25-19.82,17.25-58.26,0-28.11-19.7-46.29-25.55-74.14-9-42.71-53.57-168.17-123.16-168.17-8,0-18.74,16.81-18.74,51.44,0,42,40.68,85.49,40.68,94.51C187,964.29,277.83,1015.92,296.48,1015.92Z"/>
  <path class="cls-5" d="M296.93,1015.92c0-5.63-8.14-43.4-12.37-52.84s-20.84-56.65-23.44-69.68-50.79-140.32-96.05-172.56"/>
  <line class="cls-5" x1="276.16" y1="940.85" x2="200.24" y2="925.39"/>
  <line class="cls-5" x1="279.98" y1="951.4" x2="210.45" y2="945.61"/>
  <line class="cls-5" x1="258.1" y1="883.56" x2="187.53" y2="862.2"/>
  <line class="cls-5" x1="264.82" y1="906.95" x2="286.36" y2="891.29"/>
  <line class="cls-5" x1="224.04" y1="804.06" x2="245.32" y2="779.93"/>
  <line class="cls-5" x1="217.39" y1="791.21" x2="235.5" y2="766.64"/>
  <rect class="cls-1" x="283.02" y="485.46" width="218.93" height="42.2"/>
  <circle class="cls-2" cx="486.23" cy="501.26" r="7.4"/>
  <line class="cls-7" x1="358.62" y1="501.26" x2="472.6" y2="501.26"/>
  <rect class="cls-1" x="283.02" y="556.8" width="218.93" height="42.2"/>
  <circle class="cls-2" cx="486.23" cy="572.6" r="7.4"/>
  <line class="cls-7" x1="358.62" y1="572.6" x2="472.6" y2="572.6"/>
  <rect class="cls-1" x="283.02" y="628.13" width="218.93" height="42.2"/>
  <circle class="cls-2" cx="486.23" cy="643.93" r="7.4"/>
  <line class="cls-7" x1="358.62" y1="643.93" x2="472.6" y2="643.93"/>
  <rect class="cls-1" x="283.02" y="699.47" width="218.93" height="42.2"/>
  <circle class="cls-2" cx="486.23" cy="715.27" r="7.4"/>
  <line class="cls-7" x1="358.62" y1="715.27" x2="472.6" y2="715.27"/>
  <rect class="cls-1" x="283.02" y="770.8" width="218.93" height="42.2"/>
  <circle class="cls-2" cx="486.23" cy="786.61" r="7.4"/>
  <line class="cls-7" x1="358.62" y1="786.61" x2="472.6" y2="786.61"/>
  <line class="cls-8" x1="215.06" y1="515.82" x2="247.9" y2="515.82"/>
  <line class="cls-8" x1="215.06" y1="524.32" x2="247.9" y2="524.32"/>
  <line class="cls-8" x1="215.06" y1="573.65" x2="247.9" y2="573.65"/>
  <line class="cls-8" x1="215.06" y1="582.15" x2="247.9" y2="582.15"/>
  <line class="cls-8" x1="215.06" y1="643.93" x2="247.9" y2="643.93"/>
  <line class="cls-8" x1="215.06" y1="652.44" x2="247.9" y2="652.44"/>
  <line class="cls-8" x1="215.06" y1="711.93" x2="247.9" y2="711.93"/>
  <line class="cls-8" x1="215.06" y1="720.44" x2="247.9" y2="720.44"/>
  <path class="cls-5" d="M891.88,574.25a12,12,0,0,0,2.62,4.25"/>
  <polyline class="cls-5" points="794.73 1006.71 799.17 1030.98 747.21 1041.07 782.76 1018.16 781.06 1008.54"/>
  <polyline class="cls-5" points="684.89 993.72 672.33 1014.79 625.95 987.17 668.21 994.15 673.23 985.84"/>
  <path d="M972.43,854c0-4.3.75-9.28-1.93-10.39-63.62-26.23-156.76-29.63-171.11-29.63s-56.31,1.46-56.31,13.47c0,43.38,24.17,176.93,29.08,181.92,2.33,2.35,22.65.78,25.18-1.76-.17-11,6.22-121.49.39-134.87,53.47,19.6,114.19,28.88,130.19,28.88C974.29,901.57,972.43,859.1,972.43,854Z"/>
  <path d="M187,861.3c0-5.25-13.79-22.19-25.31-43.72C140.53,801.66,121.57,792,111.34,792c-6,0-8.69,10.78-8.69,16.49,0,59.78,64.09,129.27,120.1,155.1C202.87,938.5,187,904.4,187,861.3Z"/>
</svg>
