<?xml version="1.0" standalone="no"?>
<svg
  width="600"
  height="600"
  viewBox="0 0 600 600"
  xmlns="http://www.w3.org/2000/svg"
>
  <g transform="translate(300,300)">
    <path d="M82,-98.3C129.8,-57.7,208.2,-54.1,229.6,-26.6C251.1,1,215.6,52.5,172.9,74.9C130.2,97.2,80.3,90.4,37.8,107.5C-4.8,124.7,-40,165.7,-63.3,162.3C-86.5,158.8,-97.8,110.9,-109.3,72.2C-120.7,33.5,-132.2,4.1,-140.1,-37.4C-147.9,-79,-152.1,-132.6,-128.1,-177.3C-104.1,-222.1,-52.1,-258,-17.5,-237.2C17.1,-216.4,34.3,-138.9,82,-98.3Z" fill="#FFB4BC" />
  </g>
</svg>
  